# xmcd CD database file
#
# Track frame offsets:
#	150
#	59430
#	128790
#	169746
#	238139
#
# Disc length: 3948 seconds
#
# Revision: 0
# Processed by: cddbd v1.5.2PL0 Copyright (c) Steve Scherf et al.
# Submitted via: CDex 1.70beta2
#
DISCID=410f6a05
DTITLE=Jay Gee - Bhagavad Gita [CD3)
DYEAR=2003
DGENRE=New Age
TTITLE0=Ch10: The opulence of the Absolute
TTITLE1=Ch11: The universal form
TTITLE2=Ch12: Devotional service
TTITLE3=Ch13: Nature, the enjoyer and consciousness
TTITLE4=Ch14: The three modes of material nature
EXTD=YEAR: 2003
EXTT0=
EXTT1=
EXTT2=
EXTT3=
EXTT4=
PLAYORDER=
